<?xml version="1.0" standalone="no"?>
<!DOCTYPE svg PUBLIC "-//W3C//DTD SVG 1.1//EN" "http://www.w3.org/Graphics/SVG/1.1/DTD/svg11.dtd" >
<svg xmlns="http://www.w3.org/2000/svg">
<metadata>
Created by FontPrep 20130207 at Fri May  2 18:04:12 2014
 By Adrien
</metadata>
<defs>
<font id="bcb65e5f871894c6b949303cede8fd32" horiz-adv-x='1024' >
  <font-face 
    font-family="ModernSans"
    font-weight="400"
    font-stretch="normal"
    units-per-em="2048"
    panose-1="0 0 0 0 0 0 0 0 0 0"
    ascent="1536"
    descent="-512"
    x-height="1092"
    cap-height="1520"
    bbox="102 -446 2327 1772"
    underline-thickness="102"
    underline-position="-102"
    unicode-range="U+000D-2014"
  />
<missing-glyph horiz-adv-x="1024" 
 />
    <glyph glyph-name=".notdef" horiz-adv-x="1024" 
 />
    <glyph glyph-name=".null" horiz-adv-x="0" 
 />
    <glyph glyph-name="nonmarkingreturn" unicode="&#xd;" horiz-adv-x="1024" 
 />
    <glyph glyph-name="NULL" horiz-adv-x="0" 
 />
    <glyph glyph-name="NULL" horiz-adv-x="0" 
 />
    <glyph glyph-name="space" unicode=" " horiz-adv-x="1228" 
 />
    <glyph glyph-name="exclam" unicode="!" horiz-adv-x="471" 
d="M348 223v-223h-225v223h225zM123 428v1092h223v-1092h-223z" />
    <glyph glyph-name="quotesingle" unicode="'" horiz-adv-x="405" 
d="M303 1520l-61 -230h-140l62 230h139z" />
    <glyph glyph-name="comma" unicode="," horiz-adv-x="538" 
d="M426 242l-98 -369h-226l99 369h225z" />
    <glyph glyph-name="hyphen" unicode="-" horiz-adv-x="1013" 
d="M911 479h-809v223h809v-223z" />
    <glyph glyph-name="period" unicode="." horiz-adv-x="471" 
d="M348 223v-223h-225v223h225z" />
    <glyph glyph-name="slash" unicode="/" horiz-adv-x="849" 
d="M326 -82h-224l422 1684h224z" />
    <glyph glyph-name="zero" unicode="0" horiz-adv-x="1200" 
d="M877 762q0 360 -103.5 445t-172.5 85q-130 0 -203.5 -150.5t-73.5 -378.5t73.5 -379t203.5 -151t203 150t73 379zM600.5 1530q104.5 0 195.5 -60.5t196.5 -222.5t105.5 -482t-105.5 -482t-196.5 -222.5t-195.5 -60.5t-196 60.5t-197 222.5t-105.5 482t105.5 482
t197 222.5t196 60.5z" />
    <glyph glyph-name="one" unicode="1" horiz-adv-x="833" 
d="M467 0v1079l-234 -180l-131 180l588 445v-1524h-223z" />
    <glyph glyph-name="two" unicode="2" horiz-adv-x="1114" 
d="M1012 223v-223h-910l113 180q84 135 136 223.5t85 142.5t56.5 94t50 81t59 88t62.5 93q140 209 68 299q-40 50 -102.5 68.5t-117.5 0.5q-78 -27 -78 -125l-237 -113v113q0 119 62.5 215t182.5 136t256 3q135 -37 219 -146q85 -110 74.5 -259.5t-110.5 -293.5
t-153.5 -233.5t-79.5 -132.5t-57.5 -96t-68.5 -115h490z" />
    <glyph glyph-name="three" unicode="3" horiz-adv-x="1193" 
d="M199 1296v220h782l-274 -500q94 -25 172 -74q139 -94 190 -252t-7 -331.5t-191 -266.5q-134 -92 -293 -92h-22q-22 0 -34 2q-209 23 -420 184l144 189q160 -123 283 -136t201 43t109 154q32 98 3 186q-61 183 -318 175h-209l281 499h-397z" />
    <glyph glyph-name="four" unicode="4" horiz-adv-x="1171" 
d="M723 1348h-4l-354 -777h358v777zM723 348h-621v223l457 949h383v-949h127v-223h-127v-348h-219v348z" />
    <glyph glyph-name="five" unicode="5" horiz-adv-x="1124" 
d="M899 1522v-219h-438l-25 -287q279 0 432.5 -150t153.5 -366q0 -215 -149 -357.5t-337 -142.5t-327 102q-63 45 -107 103l125 151q100 -98 202.5 -122.5t185.5 4t135.5 98.5t52.5 163q0 167 -106.5 231.5t-217.5 64.5h-278l61 727h637z" />
    <glyph glyph-name="six" unicode="6" horiz-adv-x="1097" 
d="M392 304q64 -68 157 -68q94 0 156.5 68t62.5 167q0 100 -63.5 164.5t-156.5 64.5t-156.5 -65.5t-63.5 -163.5q0 -99 64 -167zM867.5 138q-127.5 -136 -322.5 -136t-319 139.5t-124 325.5q0 119 31 215q12 43 31 74l436 766h260l-328 -576q214 0 338.5 -143.5
t124.5 -336.5q0 -192 -127.5 -328z" />
    <glyph glyph-name="seven" unicode="7" horiz-adv-x="1138" 
d="M186 1518h850l-678 -1518h-235l582 1300h-519v218z" />
    <glyph glyph-name="eight" unicode="8" horiz-adv-x="1239" 
d="M618.5 225q61.5 0 113.5 18.5t92 50.5t62.5 75t22.5 92t-22.5 91t-62.5 73.5t-92 50t-113.5 18.5t-113.5 -18.5t-92 -50t-62.5 -73.5t-22.5 -91t22.5 -92t62.5 -75t92 -50.5t113.5 -18.5zM620 1290q-145 0 -186 -69.5t-41 -124t68.5 -106.5t158.5 -52t158 52.5t68 123
t-65 123.5t-161 53zM1137 462q0 -198 -153 -330t-365 -132t-359 129q-74 61 -116 147t-42 250.5t201 298.5q-58 48 -97 124q-38 77 -38 164t37 164q71 148 199 195.5t260 47.5t268 -113q68 -57 100 -129q39 -76 39 -206t-135 -247q10 -8 56.5 -40.5t95.5 -127.5
q49 -96 49 -195z" />
    <glyph glyph-name="nine" unicode="9" horiz-adv-x="1097" 
d="M705.5 1217.5q-64.5 68.5 -156.5 68.5t-155.5 -67t-63.5 -167q0 -101 63.5 -166t157.5 -65t156.5 65t62.5 164t-64.5 167.5zM229.5 1381.5q127.5 138.5 323.5 138.5t319 -140t123 -325q0 -104 -30 -215q-14 -43 -31 -74l-436 -766h-260l327 575q-213 0 -338 145t-125 334
t127.5 327.5z" />
    <glyph glyph-name="colon" unicode=":" horiz-adv-x="430" 
d="M328 1092v-226h-226v226h226zM328 223v-223h-226v223h226z" />
    <glyph glyph-name="semicolon" unicode=";" horiz-adv-x="528" 
d="M426 246l-100 -369h-224l99 369h225zM426 1096v-226h-225v226h225z" />
    <glyph glyph-name="A" unicode="A" horiz-adv-x="1540" 
d="M512 430h514l-256 600zM1210 0l-88 207h-706l-88 -207h-226l668 1520l668 -1520h-228z" />
    <glyph glyph-name="B" unicode="B" horiz-adv-x="1220" 
d="M684 207q99 0 149 39t50 198q0 192 -80 213t-119 21h-322v-471h322zM362 899h222q78 0 130 50t52 164t-63.5 155t-118.5 41h-222v-410zM995 1126q0 -209 -86 -295q114 -28 161.5 -143.5t47.5 -261.5t-34.5 -233t-91 -130t-129 -53t-148.5 -10h-592v1520h524
q202 0 275 -125.5t73 -268.5z" />
    <glyph glyph-name="C" unicode="C" horiz-adv-x="1380" 
d="M102 754q0 162 60.5 305t170 249.5t260 163t306.5 46.5t281 -72l-99 -197q-68 31 -114.5 39t-129.5 8t-180.5 -44t-171 -117.5t-117.5 -171t-44 -205.5t45 -204.5t119.5 -170.5t171 -118t191.5 -44t153.5 16.5t146.5 67.5l127 -176q-100 -59 -177 -88t-163 -37
q-170 -18 -321.5 36t-266 158.5t-181.5 249t-67 306.5z" />
    <glyph glyph-name="D" unicode="D" horiz-adv-x="1347" 
d="M494 223q226 0 377 109t151 426q0 404 -191 471t-337 67h-148v-1073h148zM365 1520q256 0 370.5 -25t203.5 -71t197.5 -182.5t108.5 -484.5t-158.5 -545.5t-396 -204.5t-325.5 -7h-242v1520h242z" />
    <glyph glyph-name="E" unicode="E" horiz-adv-x="1159" 
d="M123 1520h934v-211h-711v-459h574v-211h-574v-426h711v-213h-934v1520z" />
    <glyph glyph-name="F" unicode="F" horiz-adv-x="1159" 
d="M346 0h-223v1520h934v-211h-711v-459h574v-211h-574v-639z" />
    <glyph glyph-name="G" unicode="G" horiz-adv-x="1445" 
d="M102 760q0 158 59.5 296t163 241.5t242 163t295.5 59.5q226 0 335.5 -69t145.5 -95l-110 -219q-86 93 -195.5 120t-193.5 27t-180.5 -42t-209 -154.5t-112.5 -332.5t153 -374t375 -154q61 0 125 17.5t103 46.5v233h-439l125 211h559v-577q-189 -158 -481 -158
q-158 0 -296 59.5t-241.5 163t-163 241.5t-59.5 296z" />
    <glyph glyph-name="H" unicode="H" horiz-adv-x="1280" 
d="M102 1520h222v-670h630v670h224v-1520h-224v639h-628v-639h-224v1520z" />
    <glyph glyph-name="I" unicode="I" 
d="M346 1520v-1520h-223v1520h223z" />
    <glyph glyph-name="J" unicode="J" horiz-adv-x="917" 
d="M795 471q0 -215 -132.5 -338t-314.5 -128t-246 -5l107 223q148 0 255 42t107 206v1049h224v-1049z" />
    <glyph glyph-name="K" unicode="K" horiz-adv-x="1263" 
d="M123 1520h223v-678l500 678h272l-444 -613l487 -907h-252l-381 707l-182 -248v-459h-223v1520z" />
    <glyph glyph-name="L" unicode="L" horiz-adv-x="1101" 
d="M999 0h-876v1520h223v-1297h653v-223z" />
    <glyph glyph-name="M" unicode="M" horiz-adv-x="1421" 
d="M102 0v1520l609 -695l608 695v-1520h-225v936l-383 -424l-387 430v-942h-222z" />
    <glyph glyph-name="N" unicode="N" horiz-adv-x="1331" 
d="M1006 1520h223v-1520l-905 924v-924h-222v1520l904 -961v961z" />
    <glyph glyph-name="O" unicode="O" horiz-adv-x="1726" 
d="M863 252q211 0 361 148t150 360.5t-149.5 362t-361.5 149.5t-361.5 -149.5t-149.5 -362t150 -360.5t361 -148zM864.5 1522q157.5 0 295.5 -59.5t241.5 -163t163 -241.5t59.5 -296t-59.5 -296t-163 -241.5t-241.5 -163t-295.5 -59.5t-296 59.5t-242 163t-164 241.5
t-60.5 296t60.5 296t164 241.5t242 163t296 59.5z" />
    <glyph glyph-name="P" unicode="P" horiz-adv-x="1189" 
d="M494 737q61 0 127.5 2t120 27t88 82t34.5 167.5t-34.5 168t-88 82t-119 27.5t-126.5 3h-150v-559h148zM580 1520q205 0 356 -87t151 -457.5t-190.5 -416t-314.5 -45.5h-236v-514h-223v1520h457z" />
    <glyph glyph-name="Q" unicode="Q" horiz-adv-x="1771" 
d="M502 398q150 -148 361 -148t361 148t150 360.5t-149.5 362t-361.5 149.5t-361.5 -149.5t-149.5 -362t150 -360.5zM1624 760q0 -300 -207 -520l252 -240h-358l-92 88q-165 -88 -339 -88t-312 59.5t-241.5 163t-164 241.5t-60.5 296t60.5 296t164 241.5t242 163t296 59.5
t295.5 -59.5t241.5 -163t163 -241.5t59.5 -296z" />
    <glyph glyph-name="R" unicode="R" horiz-adv-x="1241" 
d="M494 737q61 0 127.5 2t120 27t88 82t34.5 167.5t-34.5 168t-88 82t-119 27.5t-126.5 3h-150v-559h148zM632 514h-286v-514h-223v1520h457q205 0 356 -87t151 -421q0 -335 -210 -447l262 -565h-246l-236 516q-20 -2 -25 -2z" />
    <glyph glyph-name="S" unicode="S" horiz-adv-x="1284" 
d="M848 1227q-115 67 -221 67q-105 0 -156 -57.5t-51 -128.5q0 -72 56 -109.5t141 -61.5t183.5 -46.5t183.5 -68.5t141.5 -129t56.5 -203q0 -222 -154.5 -356t-408.5 -134t-368 86t-149 109l117 196q121 -96 225.5 -131t168.5 -35q135 0 239 63t104 177q0 160 -211.5 212.5
t-293.5 85t-168 103t-86 248.5q0 117 49 196t145 144.5t253 65.5t319 -97z" />
    <glyph glyph-name="T" unicode="T" horiz-adv-x="1280" 
d="M530 0v1296h-428v224h1076v-224h-424v-1296h-224z" />
    <glyph glyph-name="U" unicode="U" horiz-adv-x="1335" 
d="M102 1520h222v-992q0 -16 12 -66t78 -144.5t252 -94.5q187 0 252 94.5t77.5 143.5t12.5 65v994h225v-992q0 -121 -85 -272t-218 -203.5t-262 -52.5t-221.5 34t-177.5 105t-126 193.5t-41 195.5v992z" />
    <glyph glyph-name="V" unicode="V" horiz-adv-x="1540" 
d="M1438 1520l-668 -1520l-668 1520h275l393 -897l393 897h275z" />
    <glyph glyph-name="W" unicode="W" horiz-adv-x="1986" 
d="M1237 602l393 918h254l-647 -1520l-238 543l-229 -543l-668 1520h252l416 -918l100 238l-270 620h252z" />
    <glyph glyph-name="X" unicode="X" horiz-adv-x="1617" 
d="M172 1520h272l363 -529l364 529h273l-483 -711l555 -809h-271l-438 635l-434 -635h-271l553 809z" />
    <glyph glyph-name="Y" unicode="Y" horiz-adv-x="1398" 
d="M819 0h-237v473l-480 1047h263l335 -740l336 740h260l-477 -1047v-473z" />
    <glyph glyph-name="Z" unicode="Z" horiz-adv-x="1175" 
d="M182 1520h891l-618 -1305h618v-215h-971l617 1298h-537v222z" />
    <glyph glyph-name="backslash" unicode="\" horiz-adv-x="849" 
d="M524 -82l-422 1684h224l422 -1684h-224z" />
    <glyph glyph-name="underscore" unicode="_" horiz-adv-x="1599" 
d="M1497 0h-1395v223h1395v-223z" />
    <glyph glyph-name="a" unicode="a" horiz-adv-x="1382" 
d="M918 273.5q98 99.5 98 240.5t-98 240.5t-238 99.5t-239 -99t-99 -241t99 -241t239 -99t238 99.5zM1239 1030v-1030h-223v147q-72 -92 -174.5 -147t-214.5 -55t-206.5 45t-165.5 122.5t-112 181t-41 281t153 345t366 167.5q119 0 221 -54t174 -148v145h223z" />
    <glyph glyph-name="b" unicode="b" horiz-adv-x="1347" 
d="M690.5 186q67.5 0 127 27t102.5 73t68.5 106.5t25.5 130t-25.5 130t-68.5 105.5t-102.5 71.5t-127 26.5t-126 -26.5t-102.5 -71.5t-69.5 -105.5t-25.5 -130t25.5 -130t69.5 -106.5t102.5 -73t126 -27zM367 887q152 200 370 200t363 -164.5t145 -397.5t-145 -398.5
t-352 -165.5q-117 0 -214.5 54.5t-166.5 146.5v-162h-224v1520h224v-633z" />
    <glyph glyph-name="c" unicode="c" horiz-adv-x="1089" 
d="M645 856q-311 0 -311 -233.5t82 -312.5t229 -79q72 0 116 20.5t77 39.5l108 -199q-140 -80 -253 -91q-114 -11 -222.5 28t-190 113.5t-130 178t-48.5 219.5q0 239 169 402t421 145q100 -8 185 -51l-89 -213q-49 20 -74.5 26.5t-68.5 6.5z" />
    <glyph glyph-name="d" unicode="d" horiz-adv-x="1347" 
d="M657.5 186q67.5 0 126 27t102.5 73t69.5 106.5t25.5 130t-25.5 130t-69.5 105.5t-102.5 71.5t-126 26.5t-126 -26.5t-102.5 -71.5t-69.5 -105.5t-25.5 -130t25.5 -130t69.5 -106.5t102.5 -73t126 -27zM1204 1520v-1520h-223v162q-68 -92 -165.5 -146.5t-207.5 -54.5
t-201.5 44t-159 121t-106.5 179.5t-39 219t39 219t106.5 179t159 120.5t201.5 44t207.5 -54t165.5 -146v633h223z" />
    <glyph glyph-name="e" unicode="e" horiz-adv-x="1257" 
d="M599.5 903q-123.5 0 -198.5 -85.5t-75 -162.5h563q-15 130 -90.5 189t-199 59zM626 1094q120 0 199.5 -34t152.5 -104t103.5 -182t30.5 -194v-107h-786q0 -23 16 -64.5t78.5 -114.5t205.5 -73q220 0 386 107v-228q-50 -56 -194 -78t-177 -22t-81 6t-150 43t-205 165
t-103 364q0 90 36 182t103.5 165.5t166 121t218.5 47.5z" />
    <glyph glyph-name="f" unicode="f" horiz-adv-x="888" 
d="M745 1303q-159 0 -194 -21.5t-42 -48.5t-7 -68v-108h243v-223h-243v-834h-223v834h-177v223h174v112q0 225 134.5 284.5t334.5 59.5v-210z" />
    <glyph glyph-name="g" unicode="g" horiz-adv-x="1304" 
d="M918 563q-4 126 -89.5 215.5t-202.5 89.5t-203.5 -92.5t-86.5 -227.5t86.5 -228t203.5 -93t201.5 88.5t90.5 216.5v31zM918 1030h223v-1032q0 -182 -119 -313t-421 -131t-408 88v221q153 -82 364.5 -82t286 63.5t74.5 159.5v125q-144 -129 -334 -129t-336 159t-146 386
t145.5 387t337.5 160q191 0 333 -131v69z" />
    <glyph glyph-name="h" unicode="h" horiz-adv-x="1187" 
d="M367 428v-428h-224v1520h222v-670q52 132 147.5 188t179.5 56q159 0 266 -103.5t107 -257.5v-733h-221v616q0 165 -66 199.5t-114 34.5q-99 0 -198 -128t-99 -294z" />
    <glyph glyph-name="i" unicode="i" 
d="M102 1092h224v-1092h-224v1092zM326 1274h-224v246h224v-246z" />
    <glyph glyph-name="j" unicode="j" 
d="M102 1092h224v-1538h-224v1538zM326 1274h-224v246h224v-246z" />
    <glyph glyph-name="k" unicode="k" horiz-adv-x="1165" 
d="M143 1520h224v-893l346 465h272l-291 -400l369 -692h-250l-264 492l-182 -248v-244h-224v1520z" />
    <glyph glyph-name="l" unicode="l" 
d="M326 0h-224v1520h224v-1520z" />
    <glyph glyph-name="m" unicode="m" horiz-adv-x="1863" 
d="M143 0v1092h224v-152q55 84 143 118t178 34t150.5 -28t97.5 -61.5t53.5 -64.5t16.5 -37t16 22.5t57 65.5t108.5 70t172 33t173.5 -37t111 -88.5t59 -102.5t17 -80v-784h-225v682q0 57 -64 109.5t-137 52.5q-113 0 -184.5 -65.5t-71.5 -196.5v-582h-225v678
q0 63 -43.5 114.5t-111.5 51.5q-131 0 -211 -69t-80 -193v-582h-224z" />
    <glyph glyph-name="n" unicode="n" horiz-adv-x="1177" 
d="M143 0v1092h222v-152q55 84 143 118t192 34q198 0 266 -115t68 -313v-664h-223v678q0 63 -43.5 114.5t-111.5 51.5q-132 0 -211.5 -70t-79.5 -192v-582h-222z" />
    <glyph glyph-name="o" unicode="o" horiz-adv-x="1296" 
d="M649.5 213q69.5 0 130 25.5t105.5 70.5t71.5 105.5t26.5 130t-26.5 130t-71.5 105.5t-105.5 72t-130 27t-130 -27t-105.5 -72t-72 -105.5t-27 -130t27 -130t72 -105.5t105.5 -70.5t130 -25.5zM649.5 1092q112.5 0 212 -43t173 -117t116.5 -174.5t43 -213t-43 -212
t-116.5 -173t-173 -116.5t-212 -43t-212 43t-174.5 116.5t-118 173t-43 212t43 213t118 174.5t174.5 117t212 43z" />
    <glyph glyph-name="p" unicode="p" horiz-adv-x="1339" 
d="M987 548q0 133 -90.5 225.5t-219.5 92.5t-219.5 -92.5t-90.5 -225.5t91.5 -227t217.5 -94q127 0 219 94t92 227zM367 961q153 129 357 129t358.5 -159.5t154.5 -386.5t-154.5 -385.5t-360.5 -158.5q-207 0 -355 131v-577h-224v1538h224v-131z" />
    <glyph glyph-name="q" unicode="q" horiz-adv-x="1339" 
d="M973 548q0 133 -90.5 225.5t-220 92.5t-220 -92.5t-90.5 -225.5t92 -227t218.5 -94t218.5 94t92 227zM973 1092h223v-1538h-223v577q-150 -131 -356 -131q-205 0 -360 158.5t-155 386t155 386.5t359 159t357 -129v131z" />
    <glyph glyph-name="r" unicode="r" horiz-adv-x="884" 
d="M174 1092h223v-136q57 73 166 104.5t219 31.5v-224q-140 0 -223.5 -33.5t-122.5 -72.5t-39 -96v-666h-223v1092z" />
    <glyph glyph-name="s" unicode="s" horiz-adv-x="978" 
d="M478 903q-81 0 -112.5 -32.5t-31.5 -79.5t40 -73t100.5 -41t131 -28.5t171 -70t100.5 -244.5q0 -143 -110.5 -238.5t-292.5 -95.5t-264.5 61.5t-107.5 77.5l111 168q86 -70 157.5 -92t100.5 -22q106 0 141 37.5t35 101.5t-40 94.5t-99 49t-130 32.5t-130.5 45t-99 87
t-39.5 146q0 158 108 231t254 73q89 0 154 -26t94 -44l-109 -168q-51 51 -132 51z" />
    <glyph glyph-name="t" unicode="t" horiz-adv-x="929" 
d="M786 1059v-223h-243v-836h-228v836h-172v223h172v381l228 80v-461h243z" />
    <glyph glyph-name="u" unicode="u" horiz-adv-x="1097" 
d="M143 1092h224v-713q0 -92 60.5 -124t122.5 -32q107 0 144 53t37 101v715h223v-713q0 -97 -86 -238t-285 -141t-306.5 87.5t-120.5 182.5t-13 109v713z" />
    <glyph glyph-name="v" unicode="v" horiz-adv-x="1302" 
d="M1200 1092l-549 -1092l-549 1092h267l282 -574l283 574h266z" />
    <glyph glyph-name="w" unicode="w" horiz-adv-x="1736" 
d="M1634 1094l-549 -1092l-217 432l-217 -432l-549 1092h267l282 -574l217 441l217 -441l283 574h266z" />
    <glyph glyph-name="x" unicode="x" horiz-adv-x="1300" 
d="M193 1092h272l184 -304l187 304h270l-346 -510l397 -582h-268l-240 379l-235 -379h-271l398 582z" />
    <glyph glyph-name="y" unicode="y" horiz-adv-x="1368" 
d="M143 1092h256l287 -703l283 703h256l-619 -1538h-260l209 512z" />
    <glyph glyph-name="z" unicode="z" horiz-adv-x="962" 
d="M190 1092h670l-409 -871h378v-221h-727l410 870h-322v222z" />
    <glyph glyph-name="bar" unicode="|" 
d="M346 -82h-223v1684h223v-1684z" />
    <glyph glyph-name="Agrave" unicode="&#xc0;" horiz-adv-x="1538" 
d="M838 1542h-140l-61 230h139zM510 430h514l-256 600zM768 1520l668 -1520h-228l-88 207h-704l-90 -207h-224z" />
    <glyph glyph-name="Aacute" unicode="&#xc1;" horiz-adv-x="1540" 
d="M901 1772l-61 -230h-140l62 230h139zM512 430h514l-256 600zM770 1520l668 -1520h-228l-88 207h-706l-88 -207h-226z" />
    <glyph glyph-name="Egrave" unicode="&#xc8;" horiz-adv-x="1159" 
d="M690 1542h-139l-62 230h140zM1057 1309h-711v-459h574v-211h-574v-426h711v-213h-934v1520h934v-211z" />
    <glyph glyph-name="Eacute" unicode="&#xc9;" horiz-adv-x="1159" 
d="M690 1772l-61 -230h-140l62 230h139zM1057 1309h-711v-459h574v-211h-574v-426h711v-213h-934v1520h934v-211z" />
    <glyph glyph-name="Ograve" unicode="&#xd2;" horiz-adv-x="1724" 
d="M793 1542l-62 230h139l62 -230h-139zM862.5 250q106.5 0 198.5 40t161.5 108.5t109.5 161.5t40 199.5t-40 199t-109.5 162t-161.5 109.5t-198.5 40t-200 -40t-162 -109.5t-108.5 -162t-40 -199t40 -199.5t108.5 -161.5t162 -108.5t200 -40zM862.5 1520
q157.5 0 295.5 -59.5t241.5 -163t163 -241.5t59.5 -296t-59.5 -296t-163 -241.5t-241.5 -163t-295.5 -59.5t-296 59.5t-242 163t-163 241.5t-59.5 296t59.5 296t163 241.5t242 163t296 59.5z" />
    <glyph glyph-name="Oacute" unicode="&#xd3;" horiz-adv-x="1726" 
d="M930 1542h-142l64 230h139zM863 250q211 0 361 148t150 360.5t-149.5 362t-361.5 149.5t-361.5 -149.5t-149.5 -362t150 -360.5t361 -148zM864.5 1520q157.5 0 295.5 -59.5t241.5 -163t163 -241.5t59.5 -296t-59.5 -296t-163 -241.5t-241.5 -163t-295.5 -59.5t-296 59.5
t-242 163t-164 241.5t-60.5 296t60.5 296t164 241.5t242 163t296 59.5z" />
    <glyph glyph-name="Ugrave" unicode="&#xd9;" horiz-adv-x="1335" 
d="M592 1542l-62 230h140l61 -230h-139zM1233 1520v-992q0 -167 -85 -303t-218 -180.5t-262 -44.5t-221.5 30.5t-179.5 98t-126 187t-39 212.5v992h222v-992q0 -201 116.5 -253t226.5 -52q194 0 267.5 91.5t73.5 211.5v994h225z" />
    <glyph glyph-name="Uacute" unicode="&#xda;" horiz-adv-x="1333" 
d="M737 1542h-141l63 230h140zM1231 1520v-992q0 -173 -114.5 -350.5t-399 -177.5t-411 98t-165.5 217.5t-39 212.5v992h222v-992q0 -201 116.5 -253t226.5 -52q194 0 267.5 91.5t73.5 211.5v994h223z" />
    <glyph glyph-name="hungarumlaut" unicode="&#x2dd;" horiz-adv-x="798" 
d="M696 1520l-98 -369h-225l98 369h225zM426 1520l-98 -369h-226l99 369h225z" />
    <glyph glyph-name="endash" unicode="&#x2013;" horiz-adv-x="1013" 
d="M911 479h-809v223h809v-223z" />
    <glyph glyph-name="emdash" unicode="&#x2014;" horiz-adv-x="1599" 
d="M1497 479h-1395v223h1395v-223z" />
    <glyph glyph-name="A.001" horiz-adv-x="1540" 
d="M512 430h514l-256 600zM1210 0l-88 207h-706l-88 -207h-226l668 1520l668 -1520h-228z" />
    <glyph glyph-name="_0014" horiz-adv-x="1540" 
d="M465 319h610l-305 711zM1210 0l-41 96h-800l-41 -96h-226l668 1520l668 -1520h-228z" />
    <glyph glyph-name="_0015" horiz-adv-x="1265" 
d="M729 207q97 0 147 39t50 198q0 192 -79 213t-118 21h-367v-471h367zM362 899h222q78 0 129 50t51 163t-62.5 155t-117.5 42h-222v-410zM995 1126q0 -207 -88 -295q147 -29 201.5 -149.5t54.5 -260.5q0 -141 -34.5 -228t-91 -130t-130 -53t-149.5 -10h-635v1520h522
q119 0 188.5 -46.5t115.5 -125.5t46 -222z" />
    <glyph glyph-name="_0016" horiz-adv-x="1445" 
d="M102 760q0 158 59.5 296t163 241.5t242 163t295.5 59.5q226 0 335.5 -69t145.5 -95l-110 -219q-86 93 -195.5 120t-193.5 27t-180.5 -42t-209 -154.5t-112.5 -332.5t153 -374t375 -154q61 0 125 17.5t103 46.5v233h-267l125 211h387v-577q-189 -158 -481 -158
q-158 0 -296 59.5t-241.5 163t-163 241.5t-59.5 296z" />
    <glyph glyph-name="_0017" horiz-adv-x="1574" 
d="M102 0v1520l686 -695l685 695v-1520h-254v936l-431 -424l-436 430v-942h-250z" />
    <glyph glyph-name="_0018" horiz-adv-x="1169" 
d="M475 737q61 0 127 2t119 27t88 82t35 167.5t-35 168t-88 82t-118.5 27.5t-127.5 3h-149v-559h149zM1067 1016q0 -376 -254 -469l254 -547h-246l-235 514h-260v-514h-224v1520h457q204 0 356 -86.5t152 -417.5z" />
    <glyph glyph-name="_0019" horiz-adv-x="1949" 
d="M1847 1520l-647 -1520l-219 500l-211 -500l-668 1520h252l416 -918l82 195l-289 663h252l385 -858l393 918h254z" />
    <glyph glyph-name="_0020" horiz-adv-x="1398" 
d="M819 0h-237v412l-480 1108h263l335 -801l336 801h260l-477 -1108v-412z" />
    <glyph glyph-name="_0021" horiz-adv-x="1175" 
d="M102 1520h891l-538 -1305h618v-215h-971l537 1298h-537v222z" />
    <glyph glyph-name="_0004" horiz-adv-x="2449" 
d="M860 250q206 0 353 138t159 339v66q-12 201 -159 339t-356 138t-357 -150t-148 -361.5t108.5 -320t202 -148.5t197.5 -40zM862 1520q292 0 510 -197v197h955v-211h-711v-447q0 -8 2 -12h571v-211h-573v-426h711v-213h-955v197q-218 -197 -510 -197q-158 0 -296 59.5
t-241.5 163t-163 241.5t-59.5 296t59.5 296t163 241.5t242 163t295.5 59.5z" />
    </font>
</defs>
</svg>
